<svg width="150" height="150" viewBox="0 0 150 150" fill="none" xmlns="http://www.w3.org/2000/svg">
<circle cx="75" cy="75" r="71.5" fill="black" fill-opacity="0.6" stroke="#F7B239" stroke-width="7"/>
<path d="M97.823 118.536L96.264 124.909C91.587 126.755 87.851 128.16 85.069 129.126C82.284 130.095 79.048 130.577 75.361 130.577C69.699 130.577 65.295 129.19 62.154 126.435C59.013 123.669 57.442 120.164 57.442 115.912C57.442 114.266 57.556 112.573 57.793 110.848C58.032 109.121 58.412 107.176 58.932 105.002L64.777 84.314C65.297 82.333 65.739 80.456 66.093 78.681C66.452 76.917 66.625 75.294 66.625 73.833C66.625 71.191 66.078 69.343 64.989 68.304C63.9 67.268 61.822 66.742 58.737 66.742C57.226 66.742 55.673 66.984 54.09 67.452C52.5 67.922 51.141 68.376 50 68.798L51.563 62.42C55.392 60.861 59.052 59.526 62.553 58.418C66.054 57.307 69.362 56.751 72.491 56.751C78.114 56.751 82.453 58.11 85.5 60.828C88.547 63.548 90.07 67.074 90.07 71.419C90.07 72.318 89.97 73.902 89.755 76.166C89.545 78.435 89.154 80.514 88.584 82.405L82.764 103.01C82.287 104.665 81.858 106.557 81.485 108.686C81.1 110.801 80.916 112.417 80.916 113.501C80.916 116.237 81.526 118.105 82.749 119.098C83.981 120.091 86.103 120.585 89.117 120.585C90.532 120.585 92.142 120.334 93.931 119.841C95.715 119.348 97.016 118.915 97.823 118.536ZM99.299 32.03C99.299 35.62 97.946 38.686 95.227 41.207C92.515 43.737 89.247 45.003 85.424 45.003C81.589 45.003 78.313 43.737 75.57 41.207C72.832 38.685 71.46 35.62 71.46 32.03C71.46 28.447 72.832 25.376 75.57 22.823C78.308 20.274 81.59 19 85.424 19C89.246 19 92.515 20.277 95.227 22.823C97.948 25.376 99.299 28.448 99.299 32.03Z" fill="#F7B239"/>
</svg>
