<?xml version="1.0" encoding="iso-8859-1"?>
<!-- Generator: Adobe Illustrator 19.0.0, SVG Export Plug-In . SVG Version: 6.00 Build 0)  -->
<svg version="1.1" id="Layer_1" xmlns="http://www.w3.org/2000/svg" xmlns:xlink="http://www.w3.org/1999/xlink" x="0px" y="0px"
	 viewBox="0 0 511.997 511.997" style="enable-background:new 0 0 511.997 511.997;" xml:space="preserve">
<path style="fill:#A0BF7C;" d="M261.905,460.797c-65.323,0-122.564-23.689-161.169-66.705l-8.661-9.643l0.102-0.085l-7.603-11.597
	c-22.613-34.534-32.119-74.914-27.477-116.77C73.301,110.18,201.31,87.575,314.249,67.632
	c55.219-9.754,107.349-18.961,138.88-42.342l14.669-10.871l5.222,17.502c23.083,77.38,42.317,236.681-32.026,342.844
	C401.024,431.844,340.77,460.797,261.905,460.797z"/>
<path style="fill:#573A32;" d="M469.009,0.176c-4.463-0.725-9.054,0.802-11.998,4.275c-25.225,29.423-83.379,39.68-144.956,50.551
	C200.482,74.698,61.636,99.231,44.373,254.564c-5.18,46.686,6.153,91.529,31.829,128.777
	c-29.278,29.628-54.059,66.338-69.623,111.71c-2.287,6.673,1.271,13.978,7.962,16.247c1.382,0.478,2.782,0.7,4.156,0.7
	c5.316,0,10.291-3.328,12.109-8.653c14.012-40.866,35.712-73.532,61.039-100.096c41.054,45.338,101.359,70.349,170.061,70.349
	c83.268,0,147.046-30.78,189.568-91.503c78.242-111.701,58.249-288.486,27.264-373.692C477.201,4.127,473.481,0.996,469.009,0.176z
	 M430.524,367.417c-37.453,53.478-94.182,80.58-168.61,80.58c-61.67,0-115.507-22.178-151.646-62.455
	c32.546-28.51,69.248-48.196,104.149-61.133c0.179-0.051,0.367-0.026,0.546-0.094c2.253-0.794,4.275-1.749,6.494-2.569
	c55.39-19.311,104.533-22.221,121.156-18.432c6.886,1.476,13.739-2.799,15.275-9.702c1.553-6.903-2.799-13.747-9.702-15.3
	c-8.789-1.954-21.658-2.441-36.83-1.527c45.875-30.942,80.341-69.897,102.878-116.557c3.072-6.374,0.41-14.029-5.965-17.101
	c-6.323-3.072-14.003-0.401-17.092,5.948c-32.64,67.584-90.65,115.908-176.623,147.9c14.012-30.438,17.732-67.14,0.205-102.187
	c-3.166-6.298-10.863-8.9-17.178-5.726c-6.323,3.174-8.892,10.854-5.726,17.178c22.306,44.612-0.401,87.782-19.635,109.218
	c-26.496,12.911-52.762,29.508-76.945,50.287c-20.71-31.599-29.815-69.197-25.463-108.331
	c15.155-136.311,132.864-157.09,246.69-177.186c56.491-9.975,110.302-19.473,144.256-44.655
	C486.195,120.855,498.014,271.033,430.524,367.417z"/>
<g>
</g>
<g>
</g>
<g>
</g>
<g>
</g>
<g>
</g>
<g>
</g>
<g>
</g>
<g>
</g>
<g>
</g>
<g>
</g>
<g>
</g>
<g>
</g>
<g>
</g>
<g>
</g>
<g>
</g>
</svg>
