<svg width="848" height="747" viewBox="0 0 848 747" fill="none" xmlns="http://www.w3.org/2000/svg">
<rect width="847.183" height="747" fill="#324A5E"/>
<path d="M423.928 683.573C595.176 683.573 734 544.748 734 373.5C734 202.252 595.176 63.4275 423.928 63.4275C252.679 63.4275 113.855 202.252 113.855 373.5C113.855 544.748 252.679 683.573 423.928 683.573Z" fill="#324A5E"/>
<path d="M376.152 291.797C384.946 291.797 392.074 280.578 392.074 266.74C392.074 252.902 384.946 241.683 376.152 241.683C367.359 241.683 360.231 252.902 360.231 266.74C360.231 280.578 367.359 291.797 376.152 291.797Z" fill="#FED8B2"/>
<path d="M471.681 291.796C480.474 291.796 487.602 280.578 487.602 266.739C487.602 252.901 480.474 241.683 471.681 241.683C462.887 241.683 455.759 252.901 455.759 266.739C455.759 280.578 462.887 291.796 471.681 291.796Z" fill="#FED8B2"/>
<path d="M527.281 459.893C527.281 459.893 596.535 480.773 596.186 528.798C595.838 576.823 576.699 597.703 423.927 597.703C271.152 597.703 252.013 576.823 251.664 528.798C251.316 480.773 320.57 459.893 320.57 459.893H527.281Z" fill="#FC6F58"/>
<path d="M596.187 528.797C596.536 480.772 527.282 459.892 527.282 459.892H423.926V597.702C576.699 597.702 595.838 576.822 596.187 528.797Z" fill="#F1543F"/>
<path d="M511.249 490.789L531.586 462.832C538.853 452.843 541.801 440.355 539.772 428.168L530.441 372.177C527.551 354.839 514.651 340.865 497.598 336.601L457.907 326.679C449.899 324.677 444.28 317.481 444.28 309.228V282.572H403.577V309.228C403.577 317.482 397.959 324.677 389.951 326.679L350.259 336.601C333.207 340.865 320.307 354.839 317.417 372.177L308.086 428.168C306.056 440.352 309.005 452.841 316.269 462.83L336.604 490.786C343.345 500.053 354.112 505.536 365.572 505.536H482.284C493.741 505.536 504.508 500.056 511.249 490.789Z" fill="#FED8B2"/>
<path d="M539.77 428.168L530.439 372.177C527.549 354.839 514.65 340.865 497.597 336.601L457.905 326.679C449.898 324.677 444.279 317.481 444.279 309.228V282.572H423.927V505.536H482.281C493.74 505.536 504.508 500.053 511.248 490.789L531.586 462.832C538.852 452.843 541.8 440.352 539.77 428.168Z" fill="#EAC3A2"/>
<path d="M539.77 428.168L530.439 372.177C527.549 354.839 514.65 340.865 497.597 336.601L477.334 331.536C438.862 386.461 375.167 408.434 309.985 416.77L308.084 428.168C306.054 440.352 309.004 452.841 316.267 462.83L336.603 490.786C343.343 500.053 354.111 505.536 365.57 505.536H482.282C493.742 505.536 504.509 500.056 511.25 490.789L531.587 462.832C538.852 452.843 541.8 440.352 539.77 428.168Z" fill="#FD8469"/>
<path d="M539.77 428.168L530.439 372.177C527.549 354.839 514.65 340.865 497.597 336.601L477.334 331.536C462.734 352.379 444.496 368.469 423.929 380.876V505.536H482.283C493.743 505.536 504.511 500.056 511.251 490.789L531.589 462.832C538.852 452.843 541.8 440.352 539.77 428.168Z" fill="#FC6F58"/>
<path d="M423.929 317.28C393.96 317.28 369.665 292.985 369.665 263.016V241.309C369.665 211.339 393.96 187.045 423.929 187.045C453.898 187.045 478.193 211.339 478.193 241.309V263.014C478.192 292.983 453.898 317.28 423.929 317.28Z" fill="#F4E3C3"/>
<path d="M423.929 187.045V317.279C453.898 317.279 478.193 292.984 478.193 263.015V241.307C478.192 211.339 453.898 187.045 423.929 187.045Z" fill="#FED8B2"/>
<path d="M458.379 470.843H389.474V505.295H458.379V470.843Z" fill="#FED8B2"/>
<path d="M458.379 470.843H423.927V505.295H458.379V470.843Z" fill="#EAC3A2"/>
<path d="M409.187 263.607H392.606V269.872H409.187V263.607Z" fill="#59595B"/>
<path d="M455.25 263.607H438.668V269.872H455.25V263.607Z" fill="#59595B"/>
<path d="M430.19 292.84H417.662V299.104H430.19V292.84Z" fill="#808183"/>
<path d="M430.191 292.84H423.927V299.104H430.191V292.84Z" fill="#59595B"/>
<path d="M423.929 187.045C393.96 187.045 369.665 211.339 369.665 241.309V263.014C369.665 270.923 371.371 278.428 374.413 285.206C373.012 280.516 372.25 275.549 372.25 270.403C372.25 241.862 395.388 218.724 423.929 218.724C452.47 218.724 475.608 241.862 475.608 270.403C475.608 275.555 474.844 280.524 473.441 285.218C476.485 278.437 478.194 270.928 478.194 263.014V241.309C478.192 211.339 453.898 187.045 423.929 187.045Z" fill="#CFDBE6" fill-opacity="0.5"/>
<path d="M423.929 187.045V218.724C452.47 218.724 475.608 241.862 475.608 270.403C475.608 275.555 474.844 280.524 473.442 285.218C476.485 278.437 478.194 270.928 478.194 263.014V241.309C478.192 211.339 453.898 187.045 423.929 187.045Z" fill="#B8C9D9" fill-opacity="0.1"/>
</svg>
